<svg xmlns="http://www.w3.org/2000/svg" viewBox="0 0 533.5 544.3">
  <path fill="#4285f4" d="M533.5 278.4c0-17.4-1.6-34.1-4.6-50.4H272v95.3h146.9c-6.3 34-25 62.8-53.3 82.1v68h86.1c50.4-46.4 81.8-114.8 81.8-195z"/>
  <path fill="#34a853" d="M272 544.3c72.6 0 133.6-24 178.1-65.3l-86.1-68c-23.9 16.1-54.5 25.6-92 25.6-70.7 0-130.7-47.7-152.2-111.7H30.6v70.2c44.4 88.3 136 149.2 241.4 149.2z"/>
  <path fill="#fbbc04" d="M119.8 324.9c-10.5-31.6-10.5-65.5 0-97.1V157.6H30.6c-39.5 78.9-39.5 172.1 0 251z"/>
  <path fill="#ea4335" d="M272 107.7c39.5-.6 77.4 13.8 106.2 40.6l79.4-79.4C414.7 24.6 343.6-1.1 272 0 166.6 0 75 60.9 30.6 149.2l89.2 70.2C141.3 155.4 201.3 107.7 272 107.7z"/>
</svg>
